<svg height='300px' width='300px'  fill="#000000" xmlns="http://www.w3.org/2000/svg" xmlns:xlink="http://www.w3.org/1999/xlink" version="1.1" x="0px" y="0px" viewBox="0 0 100 100" style="enable-background:new 0 0 100 100;" xml:space="preserve"><path d="M53.6,21.4c-0.1,1.7,1.8,0.8,1.9,0.7c3.6-2.1,5.7-6,5.7-10.2c0-2.1-1.7-3.8-3.8-3.8c-2.1,0-3.8,1.7-3.8,3.8V21.4z   M50.5,28.1c0-0.8-0.4-1.1-1.2-1c-10.8,1.4-18.9,10.6-18.9,21.5S38.6,68.6,49.4,70c0,0,1.2,0.2,1.2-0.9V42.6c0.1-1.7-1.4-1-1.4-1  c-2.7,0.9-4.5,3.5-4.5,6.3c0,0.8-0.7,1.6-1.6,1.6c-0.8,0-1.6-0.7-1.6-1.6c0-4.8,3.5-8.9,8.2-9.6c0.5-0.1,0.8-0.5,0.8-1V28.1z   M54.8,41.3c-0.6,0-1.1,0.4-1.1,1v27c0,0.5,0.4,1,1,1c8.1,0,14.5-6.5,14.5-14.5C69.4,47.8,62.9,41.3,54.8,41.3L54.8,41.3L54.8,41.3z   M57.5,5c3.9,0,7,3.2,7,7c0,6.5-4.1,12.2-10,14.3c-0.1,0-0.8,0.3-0.7,0.9v9.8c0,0.5,0.4,1,1,1c9.6,0,17.5,8,17.5,17.7  c0,9.7-7.7,17.6-17.3,17.6l-0.1,0c-0.1,0.1-0.1,0,0,0c-0.6,0-1.2,0.4-1.2,1v12.7c0,4.3-3.6,7.8-7.8,7.8S38,91.5,38,87.2  c0-0.8,0.7-1.5,1.6-1.5c0.8,0,1.6,0.6,1.6,1.5c0,2.6,2.1,4.7,4.8,4.7c2.6,0,4.8-2.1,4.8-4.7V74.4c0-0.9-0.7-1.2-0.8-1.2  C37.3,72,27.8,61.3,27.8,48.4S37,25.1,49.6,23.8c0.1,0,0.9-0.3,0.8-1.2V12C50.4,8.1,53.6,5,57.5,5L57.5,5z"></path></svg>